<svg width="564.000000" height="512.000000" viewBox="0 0 564 512" fill="none" xmlns="http://www.w3.org/2000/svg" xmlns:xlink="http://www.w3.org/1999/xlink">
	<desc>
			Created with Pixso.
	</desc>
	<defs>
		<clipPath id="clip3_19">
			<rect id="Logo Light" width="564.000000" height="512.000000" fill="white" fill-opacity="0"/>
		</clipPath>
	</defs>
	<g style="mix-blend-mode:normal">
		<rect id="Logo Light" width="564.000000" height="512.000000" fill="#000000" fill-opacity="0"/>
		<g clip-path="url(#clip3_19)">
			<path id="Main Text" d="M370.66 360.26Q371.36 360.82 372.77 361.1Q372.66 355.39 366.36 332.13Q395.12 341.62 395.29 341.14Q395.3 341.1 395.13 341Q396.59 340.12 397.06 339.85Q397.1 339.87 397.1 339.87Q397.3 339.74 397.29 339.73Q397.29 339.72 397.06 339.85Q396.22 339.42 375.16 330.17Q369.57 327.72 364.5 325.38Q363.5 321.76 362.36 317.79Q359.69 308.51 361.24 285.73Q362.64 264.64 365.88 253.25Q366.44 251.14 367.43 239.32Q368.27 229.48 370.38 226.81Q372.63 224 385.57 218.23Q397.94 212.89 403.14 212.04Q403.81 210.12 403.98 209.64Q403.99 209.65 403.99 209.65Q404.05 209.48 404.04 209.48L403.98 209.64Q403.7 208.8 403.14 207.4Q402.58 206 402.3 205.15Q399.07 204.59 375.86 209.93Q377.27 199.67 383.74 182.93Q393.16 158.89 394.43 155.09Q394.57 154.95 395.13 154.67Q403.43 193.9 406.38 202.34Q409.47 226.39 411.58 243.68Q426.77 297.26 422.41 341.42Q422.27 342.26 424.8 354.21L418.75 389.09L419.6 389.93Q422.27 388.53 423.53 382.76Q423.68 381.78 424.24 377.98Q424.8 375.03 425.22 373.48Q426.91 367.57 428.88 354.5Q430.85 341.28 432.39 335.79L431.55 312.59Q433.8 284.6 429.58 260.56Q429.86 259.15 430.43 256.48Q424.55 216.83 424.78 216.79Q424.79 216.79 424.8 216.82Q424.66 215.28 422.41 191.23Q420.16 181.1 415.94 151.57Q412.43 125.7 408.35 111.78Q406.8 106.57 407.08 97.71Q407.5 87.03 407.22 84.64Q404.55 61.57 405.96 48.5Q407.36 35.98 407.93 29.65L407.93 25.71Q407.36 26 405.96 26.42Q403.71 30.5 402.44 38.79Q400.75 49.9 399.91 53Q398.36 58.48 394.99 75.92Q392.03 90.54 389.5 97.43Q389.36 99.26 388.94 102.78Q388.52 106.43 388.38 108.26Q386.97 112.48 384.58 119.79Q381.77 128.37 380.78 131.46L380.78 136.25Q338.58 252.1 358.88 322.75Q333.52 310.66 322.99 301.76Q306.53 287.7 292.89 262.1L288.96 258.03Q288.25 255.5 286.99 250.85Q285.44 245.65 284.88 243.68Q283.75 241.01 280.66 236.09Q277.85 231.73 276.86 229.2Q277.14 225.68 277.28 224Q276.3 221.04 274.47 212.18Q272.78 204.31 270.96 199.95Q271.82 198.96 272.25 197.81Q272.8 196.34 272.64 194.6Q272.36 191.37 272.5 191.23L272.93 190.39Q274.75 189.12 283.33 189.54Q284.88 189.4 287.69 189.12Q290.78 188.84 292.19 188.84Q298.94 191.65 305.27 211.2Q311.32 230.32 308.64 236.51Q309.56 237.22 310.06 237.61Q310.15 238.11 310.35 238.15Q310.46 238.18 310.61 238.06Q310.54 237.99 310.06 237.61Q309.67 235.44 311.32 224.84Q312.86 215.28 307.8 195.17Q306.53 190.25 307.52 182.23Q308.5 174.21 307.38 170Q300.91 167.04 287.69 167.6Q268.99 168.45 267.72 168.31Q265.19 159.03 271.94 139.34Q278.41 119.93 284.88 115.01L294.16 115.85Q295.99 116.42 304.57 122.6Q311.6 127.67 315.39 126.68Q325.94 136.39 339.02 170.28Q337.61 172.67 339.44 183.5Q340.28 183.92 340.99 184.34Q345.07 163.95 337.89 138.64Q336.91 135.4 336.91 123.59Q336.91 113.32 334.24 108.96Q332.22 105.79 329.34 103.94Q325.22 101.29 319.33 101.37Q319.33 101.37 319.33 101.37Q319.37 101.31 314.13 98Q308.78 94.62 307.8 95.04Q302.03 93.92 287.13 84.5Q272.78 75.5 265.75 74.51Q263.5 76.9 262.52 78.17Q267.3 99.68 244.1 152.28Q235.08 172.69 235.94 173.11Q235.99 173.14 236.08 173.09Q236.36 174.5 236.93 179.56Q237.21 183.78 238.47 186.73Q239.32 188.7 241.85 191.79Q245.08 195.45 245.64 196.43Q247.61 199.53 250 205.15Q252.82 212.32 253.66 214.01Q253.66 214.01 253.67 214.01Q254.05 213.86 266.46 244.53Q272.5 259.29 293.32 289.39L300.21 299.79Q303.44 302.32 310.75 306.12Q318.07 310.06 321.44 312.59Q339.02 326.09 339.44 326.23Q347.18 326.79 351.11 327.07Q356.55 328.89 361.33 330.47Q361.42 330.74 361.52 331.01Q367 346.62 367.85 347.89Q366.86 348.87 368.13 353.79Q369.25 358.43 370.66 360.26ZM496.1 48.92Q494.83 42.45 492.02 39.64Q491.03 43.29 493.28 51.31Q495.68 60.45 495.68 62.7Q495.81 138.03 496.34 138.03Q496.36 138.03 496.38 137.93L496.8 158.74Q495.93 158.29 459.96 204.73L460.1 205.85L460.24 206.84Q464.18 208.53 470.5 212.18Q476.83 215.98 480.07 217.39L488.78 218.79Q490.33 219.35 493.57 221.89Q496.37 224.13 499.32 224.56Q499.15 224.77 505.8 256.06L506.08 269Q506.78 270.68 509.03 274.9Q511.28 279.12 511.99 280.95L513.68 293.32Q513.66 293.28 513.66 293.28Q513.59 293.29 523.52 333.68L522.82 338.46Q522.53 347.18 520.43 358.29Q517.19 374.04 517.05 375.59L517.33 376.01L518.46 376.01Q538.57 336.64 520.57 250.29Q520 247.2 520.57 234.68Q521.13 223.43 519.44 220.2Q518.46 218.38 491.87 200.88Q492.43 200.51 494.97 197.56L495.23 194.87Q495.68 195.26 502.57 190.67L505.8 184.48Q508.05 181.95 517.75 176.6Q518.92 175.78 519.48 174.66Q520.55 172.52 519.44 169.29Q517.61 163.39 516.91 152.28Q516.21 140.04 514.8 134.28Q513.39 128.37 506.5 84.78Q506.08 82.39 506.08 76.2Q505.94 71.42 505.1 68.89Q504.53 67.48 502.28 64.53Q499.89 61.43 499.33 60.17Q497.78 57.07 496.1 48.92ZM233.69 202.06Q234.25 205.57 232.99 212.89Q232.57 215.42 233.13 220.9Q233.83 226.39 233.41 228.78Q232.57 234.26 230.88 245.37Q230.18 250.01 230.88 262.81Q231.44 274.76 230.03 281.51Q221.03 325.67 217.8 334.67Q209.17 358.63 208.92 360.85L207.68 359.98Q215.55 325.39 213.16 318.78L214.85 318.78Q214.99 317.23 216.25 313.57Q217.52 309.5 217.8 307.53Q218.64 302.6 217.1 285.87Q216.53 279.82 218.08 262.53Q219.35 247.62 217.38 239.6Q216.53 235.81 216.39 223.01Q216.25 213.31 212.74 208.25Q208.24 201.64 183.63 192.35Q160.99 183.78 148.75 182.51Q147.49 180.4 146.22 178.15L145.52 178.57Q146.08 237.92 143.41 289.81L144.82 299.65Q145.52 304.29 145.1 313.01Q144.67 321.73 145.52 326.65Q148.61 345.78 148.05 347.32L147.77 347.32L146.64 346.62L145.94 346.62Q145.8 342.12 143.13 334.81Q140.32 326.79 139.75 322.29Q139.61 319.06 138.63 302.89Q139.61 300.07 139.75 299.65Q139.33 297.54 137.64 292.62Q135.96 287.56 135.39 285.17Q134.97 282.64 135.53 277.85Q136.24 273.21 135.39 271.1Q134.69 269 133.28 250.43Q132.44 239.46 125.69 224.14L126.39 220.06Q127.52 213.03 125.97 202.34Q125.98 202.36 125.99 202.36Q126.21 202.42 128.22 195.59Q128.08 194.6 128.08 192.64Q127.94 190.67 127.8 189.68Q127.66 180.96 128.92 173.79L128.5 164.51Q128.36 158.18 128.22 155.09Q131.03 138.35 126.82 107Q126.96 106.01 127.52 103.9Q127.94 101.93 128.22 100.81Q129.21 95.18 124.57 85.62Q124.57 85.62 124.57 85.62Q124.65 85.52 94.19 63.68Q90.96 61.29 77.17 54.12Q66.49 48.5 61.71 43.01Q62.12 42.18 62.81 40.53Q63.24 41.04 75.07 46.95L79.71 46.25Q84.63 49.76 94.75 54.54Q106.43 60.03 110.08 62.14Q109.98 62.07 109.98 62.04Q110.09 61.68 127.52 66.5Q148.47 72.4 164.64 78.03Q178.14 82.81 181.66 80.56Q197.41 89.28 206.97 89.28Q208.8 95.6 214.14 122.6L214.57 133.43Q219.91 148.48 216.39 153.26Q212.6 158.32 202.75 163.1Q191.93 168.45 188.55 171.68L188.55 172.1Q188.69 172.11 201.21 178.85Q208.24 182.65 217.8 190.25Q229.05 199.1 233.69 202.06ZM62.81 40.53Q62.82 40.5 62.83 40.48Q62.8 40.48 62.8 40.49Q62.79 40.5 62.81 40.53ZM208.92 360.85Q208.89 361.06 208.94 361.07Q208.98 361.09 209.08 360.96L208.92 360.85ZM444.21 85.06Q441.96 67.9 440.41 65.79Q438.02 73.95 439 91.1Q439.99 109.53 438.58 116.7Q432.96 145.67 437.88 192.64L436.75 200.93Q437.46 204.17 437.74 209.23Q438.02 216.54 438.16 218.65Q438.86 224.98 441.11 235.67Q443.64 247.34 444.35 252.96Q444.63 254.79 444.91 262.67Q445.19 269.28 446.18 273.21L446.18 287L448.28 295.57Q448.43 296.7 447.86 300.07Q447.58 303.03 448 304.57Q448.85 307.95 448.99 313.29Q448.99 318.78 450.11 322.71Q453.49 334.1 454.47 349.85L455.88 349.85L456.16 349.43L456.16 349.15L456.3 349.15Q455.74 347.18 456.16 343.81Q456.58 340.15 456.3 339.03Q455.18 334.39 453.77 321.59L454.47 313.29Q454.89 313.01 455.88 312.17Q451.94 293.32 455.18 271.81L455.32 269.7L455.32 268.85L455.46 268.71L455.46 267.59L455.6 265.48L455.6 264.78L455.74 264.35L455.74 264.07Q455.67 264.32 455.67 264.32Q455.66 264.32 455.74 263.93L455.74 263.51L456.3 255.07Q453.07 241.01 455.6 221.89L456.16 214.15L456.3 210.21L456.44 209.93L456.44 208.25L456.58 206.42L453.35 158.6L453.07 140.89L450.11 136.67Q451.94 134 447.3 119.65L447.3 107.28Q446.6 105.03 444.21 85.06ZM53.97 341.72L53.97 341.7Q54.25 341.56 54.96 341.42Q55.66 341.28 56.08 341.28L56.78 341.28Q54.82 318.64 54.82 317.93Q48.63 294.17 52.57 248.89Q57.21 197 55.24 179.42Q81.11 176.46 89.13 186.59Q93.49 192.07 98.55 219.07Q98.85 219.68 98.87 219.78L98.83 219.78Q98.85 219.8 98.86 219.8Q98.87 219.79 98.87 219.78L100.52 219.78Q100.62 219.35 100.71 218.92Q104.06 203.55 100.1 186.59Q95.17 165.78 96.02 163.39Q94.19 160.43 92.5 159.73Q92.36 159.59 92.22 159.31Q92.08 159.03 92.08 158.89Q89.97 158.04 81.25 158.6Q71.97 159.17 69.3 158.46Q61.42 156.21 56.08 154.53Q54.25 151.15 56.36 112.06Q62.41 107.7 101.22 112.48Q105.44 124.57 110.08 138.07Q110.64 139.2 112.89 142.15Q114.86 144.68 115.28 146.93L114.58 170.56Q114.58 185.43 114.82 185.44Q114.84 185.44 114.86 185.32L115.28 186.17Q116.97 184.48 118.38 172.67Q119.64 161.56 119.36 156.07Q119.22 154.1 120.63 147.21Q121.89 140.46 121.75 137.65Q121.61 136.39 120.21 128.93Q119.08 122.89 119.36 120.5Q122.32 93.5 121.33 89.98Q117.25 87.59 116.97 85.62Q116.69 85.48 116.27 85.34Q115.99 85.2 115.72 85.2Q115.68 84.89 115.68 84.89Q115.68 84.89 115.71 85.2L115.72 85.2Q115.81 85.99 116.13 88.85Q115.57 88.85 108.11 87.59Q104.32 87.59 96.72 87.45Q89.13 87.31 85.33 87.17Q80.83 86.18 71.83 83.93Q62.83 81.82 58.47 80.84Q54.96 80.14 49.75 79.85Q42.72 79.57 41.6 79.43Q32.74 78.59 28.8 73.95L25.14 73.95Q24.05 75.45 23.57 77.13Q22.4 81.26 25 86.46Q31.46 99.37 31.61 99.3Q31.61 99.29 31.61 99.29L32.03 109.81Q32.17 116.84 32.32 120.5Q37.52 137.23 35.97 144.54Q34.71 150.03 39.63 197Q39.91 200.37 39.21 210.5Q38.5 219.64 39.63 224.7Q41.03 231.45 41.6 244.95Q42.3 260 43.14 266.32Q43.71 269.98 42.58 281.51Q41.46 292.2 42.02 293.6Q43.42 296.84 44.13 304.85Q44.83 313.57 45.96 317.23Q53.9 341.74 53.97 341.72ZM158.32 170.28Q167.18 166.06 171.25 163.67Q173.78 162.26 178.14 157.76Q182.93 152.84 184.89 151.43Q193.33 145.53 193.89 143.14Q194.32 142.01 191.36 129.35Q187.57 112.06 186.3 111.35Q181.1 107.84 169.28 107.14Q155.64 106.29 151.71 104.89Q150.44 109.39 151 115.01Q151.57 121.62 151.28 123.31Q147.49 152.14 148.05 156.07L147.77 157.06L147.35 157.9Q147.31 158 147.28 158.08Q147.28 158.09 147.27 158.12L147.26 158.13Q147.25 158.14 147.25 158.14Q147.25 158.14 147.25 158.13L147.21 158.18Q147.12 158.43 147.14 158.44Q147.15 158.44 147.21 158.32Q147.21 158.3 147.22 158.28Q147.23 158.27 147.25 158.22Q147.24 158.32 147.21 158.46L147.07 158.46L147.07 158.6Q147.12 158.49 147.13 158.49Q147.15 158.5 147.07 158.75Q146.9 159.08 146.88 159.07Q146.87 159.06 146.92 158.89L146.64 159.73Q143.83 171.68 146.64 176.32Q150.3 174.07 158.32 170.28ZM147.22 158.28Q147.21 158.29 147.21 158.29Q147.2 158.29 147.25 158.14Q147.24 158.19 147.22 158.28ZM147.25 158.22Q147.27 158.15 147.27 158.12L147.35 158.04Q147.29 158.16 147.25 158.22Z" fill="#FFFFFF" fill-opacity="1.000000" fill-rule="evenodd"/>
			<path id="Убрать верхний слой" d="M394 408L31 408L31 512L394 512L394 408ZM350.779 421.953L341.59 421.953L314.524 499.208L323.713 499.208L350.779 421.953ZM247.464 439.268C248.405 439.749 249.47 439.99 250.658 439.99C251.946 439.99 253.079 439.714 254.055 439.162C254.535 438.891 254.978 438.553 255.382 438.148C255.919 437.612 256.338 437.02 256.641 436.374C257.03 435.541 257.224 434.618 257.224 433.604C257.224 432.753 257.064 431.974 256.744 431.267C256.427 430.567 255.953 429.938 255.322 429.38C254.932 429.031 254.512 428.736 254.064 428.496C253.071 427.964 251.935 427.698 250.658 427.698C249.47 427.698 248.405 427.939 247.464 428.421C246.934 428.691 246.444 429.037 245.993 429.46C245.4 430.015 244.947 430.635 244.634 431.318C244.286 432.081 244.111 432.923 244.111 433.844C244.111 434.766 244.286 435.608 244.634 436.37C244.947 437.054 245.4 437.673 245.993 438.229C246.444 438.651 246.934 438.997 247.464 439.268ZM239.04 491L239.04 430.161L228.79 430.161L228.79 452.623C227.957 451.658 227.039 450.812 226.035 450.083C224.996 449.329 223.866 448.7 222.644 448.198C220.242 447.211 217.593 446.717 214.697 446.717C211.097 446.717 207.809 447.397 204.831 448.758C204.32 448.992 203.818 449.246 203.326 449.52C201.787 450.368 200.401 451.377 199.167 452.547C197.703 453.934 196.453 455.548 195.418 457.387C195.353 457.502 195.29 457.617 195.228 457.732C193.446 461.042 192.555 464.83 192.555 469.099C192.555 473.362 193.438 477.156 195.205 480.48C195.275 480.611 195.346 480.741 195.418 480.87C196.481 482.773 197.769 484.435 199.283 485.858C200.488 486.99 201.835 487.97 203.326 488.798C203.784 489.051 204.251 489.286 204.725 489.505C207.73 490.889 211.054 491.581 214.697 491.581C217.7 491.581 220.442 491.06 222.925 490.019C224.248 489.467 225.459 488.768 226.558 487.923C227.53 487.175 228.415 486.312 229.211 485.334L229.211 491L239.04 491ZM141.49 490.84C143.212 490.346 144.673 489.605 145.874 488.618L142.991 481.331C142.794 481.486 142.59 481.632 142.379 481.768C140.968 482.678 139.263 483.132 137.266 483.132C135.554 483.132 134.193 482.711 133.183 481.87C133.028 481.74 132.88 481.6 132.741 481.451C131.714 480.33 131.2 478.701 131.2 476.566L131.2 455.746L142.911 455.746L142.911 447.538L131.2 447.538L131.2 437.528L120.95 437.528L120.95 447.538L113.723 447.538L113.723 449.231C112.314 448.656 110.708 448.165 108.903 447.758C105.9 447.064 102.897 446.717 99.8938 446.717C93.9946 446.717 89.3101 447.965 85.8401 450.46C83.9908 451.783 82.6344 453.343 81.7706 455.14C81.0135 456.715 80.635 458.471 80.635 460.41C80.635 463.417 81.3763 465.796 82.8591 467.547C82.9429 467.646 83.0289 467.743 83.1174 467.837C84.1105 468.894 85.21 469.761 86.4158 470.44C87.2357 470.901 88.1049 471.275 89.0232 471.561C91.292 472.268 94.2349 472.896 97.8518 473.443C101.295 473.99 103.791 474.571 105.339 475.185C106.235 475.529 106.874 476.025 107.256 476.673C107.539 477.154 107.681 477.719 107.681 478.368C107.681 479.07 107.536 479.696 107.247 480.246C106.204 482.224 103.286 483.212 98.4924 483.212C95.8231 483.212 93.1072 482.819 90.3445 482.031C87.5818 481.23 85.2195 480.176 83.2576 478.868L79.3137 486.656C81.3423 488.07 84.0449 489.245 87.4216 490.179C88.4902 490.474 89.5675 490.722 90.6534 490.923C93.0122 491.362 95.4116 491.581 97.8518 491.581C103.964 491.581 108.796 490.353 112.346 487.897C114.361 486.501 115.806 484.845 116.681 482.929C117.354 481.455 117.691 479.828 117.691 478.047C117.691 475.05 116.948 472.711 115.46 471.029C115.398 470.958 115.334 470.889 115.269 470.82C114.489 470.002 113.636 469.298 112.71 468.71C111.718 468.08 110.643 467.583 109.483 467.217C107.241 466.509 104.371 465.882 100.875 465.335C97.3779 464.734 94.7954 464.094 93.1272 463.413C92.153 463.008 91.4633 462.443 91.058 461.72C90.7692 461.204 90.6248 460.607 90.6248 459.93C90.6248 459.467 90.701 459.032 90.8535 458.627C91.1891 457.734 91.8936 456.981 92.967 456.366C94.5286 455.459 96.8108 455.005 99.8137 455.005C103.337 455.005 106.595 455.635 109.588 456.894C110.541 457.295 111.467 457.759 112.366 458.288L113.723 455.595L113.723 455.746L120.95 455.746L120.95 476.806C120.95 481.206 122.041 484.648 124.222 487.133C124.429 487.37 124.646 487.598 124.874 487.817C125.011 487.948 125.151 488.076 125.295 488.2C127.894 490.454 131.471 491.581 136.025 491.581C137.947 491.581 139.768 491.334 141.49 490.84ZM51.0465 462.292L79.3341 451.722L79.3341 443.193L41.5372 457.868L41.5372 466.736L79.3341 481.411L79.3341 472.882L51.0465 462.292ZM383.53 466.736L383.53 457.868L345.733 443.193L345.733 451.722L374.021 462.292L345.733 472.882L345.733 481.411L383.53 466.736ZM271.158 489.347C274.385 490.836 277.956 491.581 281.87 491.581C286.031 491.581 289.789 490.759 293.146 489.116C293.407 488.988 293.665 488.855 293.922 488.718C295.951 487.619 297.725 486.277 299.244 484.69C300.382 483.5 301.378 482.174 302.23 480.71C302.605 480.069 302.946 479.411 303.251 478.738C304.572 475.824 305.233 472.611 305.233 469.099C305.233 465.574 304.563 462.358 303.225 459.449C302.927 458.8 302.595 458.166 302.23 457.547C301.407 456.145 300.45 454.869 299.36 453.72C297.816 452.092 296.003 450.719 293.922 449.6C293.628 449.441 293.332 449.289 293.033 449.143C289.705 447.526 285.984 446.717 281.87 446.717C278 446.717 274.467 447.45 271.269 448.915C270.805 449.128 270.348 449.356 269.898 449.6C267.835 450.709 266.033 452.069 264.492 453.678C263.382 454.838 262.408 456.128 261.57 457.547C261.225 458.135 260.91 458.737 260.625 459.352C259.266 462.286 258.587 465.535 258.587 469.099C258.587 472.65 259.258 475.896 260.599 478.835C260.891 479.475 261.215 480.099 261.57 480.71C262.438 482.191 263.451 483.532 264.61 484.732C266.125 486.301 267.887 487.629 269.898 488.718C270.312 488.94 270.732 489.15 271.158 489.347ZM189.698 491L189.698 447.217L179.468 447.217L179.468 469.359C179.468 473.536 178.427 476.756 176.346 479.019C176.306 479.062 176.266 479.106 176.225 479.148C175.675 479.725 175.077 480.229 174.429 480.659C172.531 481.921 170.213 482.552 167.476 482.552C164.81 482.552 162.635 481.908 160.954 480.621C160.574 480.33 160.219 480.006 159.889 479.649C158.114 477.7 157.226 474.757 157.226 470.82L157.226 447.217L146.976 447.217L146.976 472.222C146.976 478.283 148.488 482.934 151.511 486.176C151.677 486.353 151.847 486.527 152.021 486.696C152.463 487.124 152.926 487.523 153.411 487.895C156.617 490.352 160.765 491.581 165.855 491.581C168.28 491.581 170.564 491.192 172.707 490.415C173.077 490.281 173.442 490.136 173.802 489.979C175.505 489.239 177.011 488.281 178.322 487.105C178.902 486.584 179.445 486.021 179.948 485.415L179.948 491L189.698 491ZM255.743 447.217L245.493 447.217L245.493 491L255.743 491L255.743 447.217ZM221.387 481.694C219.725 482.426 217.902 482.792 215.918 482.792C213.97 482.792 212.174 482.439 210.528 481.734C210.099 481.55 209.68 481.342 209.271 481.11C208.599 480.726 207.974 480.286 207.398 479.791C206.292 478.84 205.361 477.685 204.607 476.326C203.459 474.244 202.885 471.835 202.885 469.099C202.885 466.376 203.459 463.974 204.607 461.892C205.378 460.492 206.334 459.31 207.473 458.344C208.029 457.874 208.628 457.454 209.271 457.087C209.68 456.855 210.099 456.647 210.528 456.463C212.174 455.758 213.97 455.405 215.918 455.405C217.902 455.405 219.725 455.771 221.387 456.503C221.782 456.677 222.168 456.872 222.544 457.087C223.229 457.475 223.863 457.921 224.448 458.425C225.552 459.375 226.479 460.531 227.229 461.892C228.377 463.974 228.951 466.376 228.951 469.099C228.951 471.835 228.377 474.244 227.229 476.326C226.496 477.647 225.594 478.774 224.524 479.709C223.918 480.238 223.258 480.705 222.544 481.11C222.168 481.326 221.782 481.52 221.387 481.694ZM288.138 481.342C286.303 482.309 284.214 482.792 281.87 482.792C279.499 482.792 277.395 482.298 275.555 481.31C274.463 480.723 273.465 479.963 272.561 479.028C272.021 478.471 271.541 477.873 271.121 477.236C269.652 475.008 268.917 472.296 268.917 469.099C268.917 465.933 269.642 463.241 271.092 461.024C271.519 460.371 272.008 459.76 272.561 459.189C273.478 458.237 274.491 457.464 275.6 456.871C277.429 455.894 279.519 455.405 281.87 455.405C284.194 455.405 286.269 455.883 288.093 456.839C289.233 457.435 290.275 458.219 291.219 459.189C291.806 459.789 292.323 460.435 292.77 461.126C294.192 463.324 294.902 465.981 294.902 469.099C294.902 472.247 294.182 474.926 292.742 477.135C292.301 477.81 291.794 478.441 291.219 479.028C290.287 479.98 289.26 480.752 288.138 481.342Z" clip-rule="evenodd" fill="#FF2678" fill-opacity="1.000000" fill-rule="evenodd"/>
		</g>
	</g>
</svg>
