<svg width="512.000000" height="512.000000" viewBox="0 0 512 512" fill="none" xmlns="http://www.w3.org/2000/svg" xmlns:xlink="http://www.w3.org/1999/xlink">
	<desc>
			Created with Pixso.
	</desc>
	<defs>
		<clipPath id="clip4_75">
			<rect id="фрейм 2" width="512.000000" height="512.000000" fill="white" fill-opacity="0"/>
		</clipPath>
	</defs>
	<rect id="фрейм 2" width="512.000000" height="512.000000" fill="#FFFFFF" fill-opacity="0"/>
	<g clip-path="url(#clip4_75)">
		<path id="path" d="M44 70C101.03 70 158.06 70 216.82 70C216.82 72.66 216.82 75.32 216.82 78.06C215.4 78.23 213.98 78.4 212.52 78.57C197.83 80.5 183.52 83.32 173.43 95.31C160.46 114.64 161.17 137.09 161.04 159.5C161.02 161.86 161 164.21 160.97 166.56C160.91 172.68 160.87 178.8 160.83 184.92C160.78 191.19 160.72 197.47 160.66 203.74C160.55 216 160.45 228.26 160.37 240.52C170.44 240.45 180.52 240.36 190.59 240.25C195.27 240.19 199.95 240.15 204.63 240.12C209.15 240.09 213.67 240.04 218.19 239.98C219.91 239.96 221.63 239.95 223.35 239.94C225.77 239.93 228.19 239.9 230.61 239.86C231.98 239.85 233.35 239.84 234.77 239.82C240.18 239.19 244.94 237.74 248.89 233.8C250.5 230.81 251.36 227.97 252.18 224.67C252.47 223.54 252.76 222.41 253.06 221.24C253.27 220.37 253.48 219.51 253.69 218.63C255.89 218.86 255.89 218.86 258.3 219.78C259.34 222.21 259.34 222.21 260.03 225.25C261.33 230.16 262.57 233.49 266.37 237.06C271 239.39 274.92 239.68 280.08 239.73C281.24 239.75 281.24 239.75 282.43 239.77C284.98 239.8 287.53 239.82 290.08 239.84C291.85 239.86 293.63 239.89 295.4 239.91C300.06 239.97 304.72 240.01 309.37 240.06C314.13 240.1 318.89 240.16 323.65 240.22C332.97 240.33 342.3 240.43 351.63 240.52C351.53 227.51 351.42 214.49 351.29 201.48C351.24 195.44 351.18 189.39 351.14 183.35C351.1 177.5 351.04 171.65 350.98 165.8C350.96 163.59 350.94 161.37 350.93 159.16C351.28 122.85 351.28 122.85 334.56 92C323.45 81.41 308.77 79.23 294.02 78.06C294.02 75.4 294.02 72.74 294.02 70C351.43 70 408.84 70 468 70C468 72.66 468 75.32 468 78.06C466.58 78.23 465.16 78.4 463.69 78.57C452.12 80.09 442.29 82.02 432.28 88.43C431.58 88.87 430.87 89.3 430.15 89.75C420.96 96.38 416.47 108.6 414.36 119.29C412.38 131.68 412.37 143.89 412.39 156.4C412.39 158.81 412.39 161.21 412.38 163.61C412.37 170.1 412.37 176.58 412.38 183.07C412.39 189.88 412.38 196.69 412.38 203.51C412.37 214.95 412.38 226.39 412.39 237.82C412.4 251.01 412.4 264.2 412.39 277.39C412.38 288.75 412.37 300.11 412.38 311.47C412.38 318.24 412.38 325.01 412.38 331.78C412.37 338.15 412.37 344.52 412.39 350.88C412.39 353.21 412.39 355.53 412.39 357.86C412.07 391.58 412.07 391.58 428.25 420.08C438.04 428.53 448.6 430.98 461.08 432.93C463.39 433.31 465.69 433.7 468 434.08C468 436.36 468 438.65 468 441C410.58 441 353.17 441 294.02 441C294.02 438.71 294.02 436.43 294.02 434.08C296.02 433.81 296.02 433.81 298.07 433.53C313.87 431.23 327.95 428.18 338.95 415.65C341.3 412.34 343.08 408.99 344.71 405.28C345.05 404.54 345.39 403.8 345.74 403.05C352.55 385.87 350.85 364.55 350.95 346.44C350.97 343.83 351 341.23 351.02 338.62C351.08 331.84 351.12 325.05 351.17 318.27C351.21 311.31 351.27 304.36 351.33 297.41C351.44 283.82 351.54 270.24 351.63 256.65C341.72 256.72 331.81 256.81 321.91 256.92C317.31 256.97 312.71 257.01 308.11 257.05C303.66 257.08 299.22 257.12 294.77 257.18C293.08 257.2 291.39 257.21 289.7 257.22C277.05 257.23 277.05 257.23 265.21 261.26C264.83 262.02 264.45 262.78 264.06 263.56C263.3 263.56 262.54 263.56 261.76 263.56C260.62 268.5 259.47 273.45 258.3 278.54C256.4 278.54 254.5 278.54 252.54 278.54C252.39 277.41 252.39 277.41 252.24 276.26C251.1 269.19 249.89 264.92 244.47 260.1C239.05 258.21 234.24 257.5 228.51 257.43C227.77 257.42 227.03 257.41 226.26 257.4C223.84 257.36 221.41 257.34 218.99 257.32C217.29 257.3 215.6 257.28 213.91 257.26C209.47 257.2 205.04 257.15 200.6 257.11C196.07 257.06 191.54 257 187 256.94C178.12 256.83 169.24 256.74 160.37 256.65C160.46 272.1 160.57 287.56 160.7 303.01C160.75 310.19 160.81 317.37 160.85 324.55C160.89 331.49 160.95 338.43 161.01 345.37C161.03 348 161.05 350.64 161.06 353.27C160.4 389.39 160.4 389.39 177.07 420.08C186.87 428.53 197.43 430.98 209.91 432.93C212.21 433.31 214.52 433.7 216.82 434.08C216.82 436.36 216.82 438.65 216.82 441C159.79 441 102.76 441 44 441C44 438.71 44 436.43 44 434.08C45.92 433.79 45.92 433.79 47.87 433.49C64.57 430.82 78.66 426.94 89.72 413.24C101.67 395.89 99.47 372.12 99.47 352.06C99.47 349.73 99.47 347.4 99.48 345.07C99.49 338.77 99.49 332.47 99.49 326.17C99.49 322.23 99.5 318.28 99.5 314.34C99.51 300.54 99.51 286.75 99.51 272.96C99.51 260.15 99.52 247.34 99.54 234.53C99.56 223.5 99.56 212.46 99.56 201.42C99.56 194.85 99.57 188.28 99.58 181.7C99.59 175.51 99.59 169.32 99.58 163.13C99.58 160.87 99.58 158.62 99.59 156.36C100.15 122.54 100.15 122.54 84.97 93.47C72.61 82.02 60.22 80.24 44 78.06C44 75.4 44 72.74 44 70Z" fill="#FFFFFF" fill-opacity="0.650000" fill-rule="nonzero"/>
	</g>
</svg>
